<?xml version="1.0" encoding="UTF-8" ?>
<svg version="1.1" width="24" height="64" xmlns="http://www.w3.org/2000/svg" shape-rendering="crispEdges">
<rect x="10" y="5" width="1" height="1" fill="#000000" />
<rect x="11" y="5" width="1" height="1" fill="#000000" />
<rect x="12" y="5" width="1" height="1" fill="#000000" />
<rect x="13" y="5" width="1" height="1" fill="#000000" />
<rect x="14" y="5" width="1" height="1" fill="#000000" />
<rect x="15" y="5" width="1" height="1" fill="#000000" />
<rect x="16" y="5" width="1" height="1" fill="#000000" />
<rect x="10" y="6" width="1" height="1" fill="#000000" />
<rect x="11" y="6" width="1" height="1" fill="#C9945D" />
<rect x="12" y="6" width="1" height="1" fill="#C9945D" />
<rect x="13" y="6" width="1" height="1" fill="#C9945D" />
<rect x="14" y="6" width="1" height="1" fill="#C9945D" />
<rect x="15" y="6" width="1" height="1" fill="#C9945D" />
<rect x="16" y="6" width="1" height="1" fill="#C9945D" />
<rect x="10" y="7" width="1" height="1" fill="#C9945D" />
<rect x="11" y="7" width="1" height="1" fill="#C9945D" />
<rect x="12" y="7" width="1" height="1" fill="#C9945D" />
<rect x="13" y="7" width="1" height="1" fill="#C9945D" />
<rect x="14" y="7" width="1" height="1" fill="#C9945D" />
<rect x="15" y="7" width="1" height="1" fill="#C9945D" />
<rect x="16" y="7" width="1" height="1" fill="#C9945D" />
<rect x="10" y="8" width="1" height="1" fill="#C9945D" />
<rect x="11" y="8" width="1" height="1" fill="#C9945D" />
<rect x="12" y="8" width="1" height="1" fill="#000000" />
<rect x="13" y="8" width="1" height="1" fill="#C9945D" />
<rect x="14" y="8" width="1" height="1" fill="#C9945D" />
<rect x="15" y="8" width="1" height="1" fill="#000000" />
<rect x="16" y="8" width="1" height="1" fill="#C9945D" />
<rect x="10" y="9" width="1" height="1" fill="#C9945D" />
<rect x="11" y="9" width="1" height="1" fill="#C9945D" />
<rect x="12" y="9" width="1" height="1" fill="#C9945D" />
<rect x="13" y="9" width="1" height="1" fill="#C9945D" />
<rect x="14" y="9" width="1" height="1" fill="#C9945D" />
<rect x="15" y="9" width="1" height="1" fill="#C9945D" />
<rect x="16" y="9" width="1" height="1" fill="#C9945D" />
<rect x="10" y="10" width="1" height="1" fill="#C9945D" />
<rect x="11" y="10" width="1" height="1" fill="#C9945D" />
<rect x="12" y="10" width="1" height="1" fill="#C9945D" />
<rect x="13" y="10" width="1" height="1" fill="#C9945D" />
<rect x="14" y="10" width="1" height="1" fill="#C9945D" />
<rect x="15" y="10" width="1" height="1" fill="#C9945D" />
<rect x="16" y="10" width="1" height="1" fill="#C9945D" />
<rect x="10" y="11" width="1" height="1" fill="#C9945D" />
<rect x="11" y="11" width="1" height="1" fill="#C9945D" />
<rect x="12" y="11" width="1" height="1" fill="#C9945D" />
<rect x="13" y="11" width="1" height="1" fill="#A67B4F" />
<rect x="14" y="11" width="1" height="1" fill="#A67B4F" />
<rect x="15" y="11" width="1" height="1" fill="#C9945D" />
<rect x="11" y="12" width="1" height="1" fill="#C9945D" />
<rect x="12" y="12" width="1" height="1" fill="#C9945D" />
<rect x="13" y="12" width="1" height="1" fill="#C9945D" />
<rect x="14" y="12" width="1" height="1" fill="#C9945D" />
<rect x="11" y="13" width="1" height="1" fill="#C9945D" />
<rect x="12" y="13" width="1" height="1" fill="#C9945D" />
<rect x="13" y="13" width="1" height="1" fill="#C9945D" />
<rect x="14" y="13" width="1" height="1" fill="#C9945D" />
<rect x="11" y="14" width="1" height="1" fill="#C9945D" />
<rect x="12" y="14" width="1" height="1" fill="#C9945D" />
<rect x="13" y="14" width="1" height="1" fill="#C9945D" />
<rect x="14" y="14" width="1" height="1" fill="#C9945D" />
<rect x="8" y="15" width="1" height="1" fill="#000000" />
<rect x="9" y="15" width="1" height="1" fill="#000000" />
<rect x="10" y="15" width="1" height="1" fill="#000000" />
<rect x="11" y="15" width="1" height="1" fill="#000000" />
<rect x="12" y="15" width="1" height="1" fill="#000000" />
<rect x="13" y="15" width="1" height="1" fill="#000000" />
<rect x="14" y="15" width="1" height="1" fill="#000000" />
<rect x="15" y="15" width="1" height="1" fill="#000000" />
<rect x="16" y="15" width="1" height="1" fill="#000000" />
<rect x="17" y="15" width="1" height="1" fill="#000000" />
<rect x="7" y="16" width="1" height="1" fill="#C9945D" />
<rect x="8" y="16" width="1" height="1" fill="#C9945D" />
<rect x="9" y="16" width="1" height="1" fill="#000000" />
<rect x="10" y="16" width="1" height="1" fill="#FFFFFF" />
<rect x="11" y="16" width="1" height="1" fill="#FFFFFF" />
<rect x="12" y="16" width="1" height="1" fill="#FFFFFF" />
<rect x="13" y="16" width="1" height="1" fill="#FFFFFF" />
<rect x="14" y="16" width="1" height="1" fill="#FFFFFF" />
<rect x="15" y="16" width="1" height="1" fill="#FFFFFF" />
<rect x="16" y="16" width="1" height="1" fill="#000000" />
<rect x="17" y="16" width="1" height="1" fill="#C9945D" />
<rect x="18" y="16" width="1" height="1" fill="#C9945D" />
<rect x="7" y="17" width="1" height="1" fill="#C9945D" />
<rect x="8" y="17" width="1" height="1" fill="#C9945D" />
<rect x="9" y="17" width="1" height="1" fill="#000000" />
<rect x="10" y="17" width="1" height="1" fill="#FFFFFF" />
<rect x="11" y="17" width="1" height="1" fill="#FFFFFF" />
<rect x="12" y="17" width="1" height="1" fill="#FFFFFF" />
<rect x="13" y="17" width="1" height="1" fill="#FFFFFF" />
<rect x="14" y="17" width="1" height="1" fill="#FFFFFF" />
<rect x="15" y="17" width="1" height="1" fill="#FFFFFF" />
<rect x="16" y="17" width="1" height="1" fill="#000000" />
<rect x="17" y="17" width="1" height="1" fill="#C9945D" />
<rect x="18" y="17" width="1" height="1" fill="#C9945D" />
<rect x="5" y="18" width="1" height="1" fill="#C9945D" />
<rect x="6" y="18" width="1" height="1" fill="#C9945D" />
<rect x="7" y="18" width="1" height="1" fill="#C9945D" />
<rect x="8" y="18" width="1" height="1" fill="#C9945D" />
<rect x="9" y="18" width="1" height="1" fill="#000000" />
<rect x="10" y="18" width="1" height="1" fill="#FFFFFF" />
<rect x="11" y="18" width="1" height="1" fill="#FFFFFF" />
<rect x="12" y="18" width="1" height="1" fill="#FFFFFF" />
<rect x="13" y="18" width="1" height="1" fill="#FFFFFF" />
<rect x="14" y="18" width="1" height="1" fill="#FFFFFF" />
<rect x="15" y="18" width="1" height="1" fill="#FFFFFF" />
<rect x="16" y="18" width="1" height="1" fill="#000000" />
<rect x="17" y="18" width="1" height="1" fill="#C9945D" />
<rect x="18" y="18" width="1" height="1" fill="#C9945D" />
<rect x="5" y="19" width="1" height="1" fill="#C9945D" />
<rect x="7" y="19" width="1" height="1" fill="#C9945D" />
<rect x="8" y="19" width="1" height="1" fill="#C9945D" />
<rect x="9" y="19" width="1" height="1" fill="#000000" />
<rect x="10" y="19" width="1" height="1" fill="#FFFFFF" />
<rect x="11" y="19" width="1" height="1" fill="#FFFFFF" />
<rect x="12" y="19" width="1" height="1" fill="#FFFFFF" />
<rect x="13" y="19" width="1" height="1" fill="#FFFFFF" />
<rect x="14" y="19" width="1" height="1" fill="#FFFFFF" />
<rect x="15" y="19" width="1" height="1" fill="#FFFFFF" />
<rect x="16" y="19" width="1" height="1" fill="#000000" />
<rect x="17" y="19" width="1" height="1" fill="#C9945D" />
<rect x="18" y="19" width="1" height="1" fill="#C9945D" />
<rect x="19" y="19" width="1" height="1" fill="#C9945D" />
<rect x="5" y="20" width="1" height="1" fill="#C9945D" />
<rect x="7" y="20" width="1" height="1" fill="#C9945D" />
<rect x="8" y="20" width="1" height="1" fill="#000000" />
<rect x="9" y="20" width="1" height="1" fill="#FFFFFF" />
<rect x="10" y="20" width="1" height="1" fill="#FFFFFF" />
<rect x="11" y="20" width="1" height="1" fill="#FFFFFF" />
<rect x="12" y="20" width="1" height="1" fill="#FFFFFF" />
<rect x="13" y="20" width="1" height="1" fill="#FFFFFF" />
<rect x="14" y="20" width="1" height="1" fill="#FFFFFF" />
<rect x="15" y="20" width="1" height="1" fill="#FFFFFF" />
<rect x="16" y="20" width="1" height="1" fill="#FFFFFF" />
<rect x="17" y="20" width="1" height="1" fill="#000000" />
<rect x="18" y="20" width="1" height="1" fill="#C9945D" />
<rect x="19" y="20" width="1" height="1" fill="#C9945D" />
<rect x="5" y="21" width="1" height="1" fill="#C9945D" />
<rect x="7" y="21" width="1" height="1" fill="#000000" />
<rect x="8" y="21" width="1" height="1" fill="#FFFFFF" />
<rect x="9" y="21" width="1" height="1" fill="#FFFFFF" />
<rect x="10" y="21" width="1" height="1" fill="#FFFFFF" />
<rect x="11" y="21" width="1" height="1" fill="#FFFFFF" />
<rect x="12" y="21" width="1" height="1" fill="#FFFFFF" />
<rect x="13" y="21" width="1" height="1" fill="#FFFFFF" />
<rect x="14" y="21" width="1" height="1" fill="#FFFFFF" />
<rect x="15" y="21" width="1" height="1" fill="#FFFFFF" />
<rect x="16" y="21" width="1" height="1" fill="#FFFFFF" />
<rect x="17" y="21" width="1" height="1" fill="#FFFFFF" />
<rect x="18" y="21" width="1" height="1" fill="#000000" />
<rect x="19" y="21" width="1" height="1" fill="#C9945D" />
<rect x="5" y="22" width="1" height="1" fill="#C9945D" />
<rect x="7" y="22" width="1" height="1" fill="#000000" />
<rect x="8" y="22" width="1" height="1" fill="#FFFFFF" />
<rect x="9" y="22" width="1" height="1" fill="#FFFFFF" />
<rect x="10" y="22" width="1" height="1" fill="#FFFFFF" />
<rect x="11" y="22" width="1" height="1" fill="#FFFFFF" />
<rect x="12" y="22" width="1" height="1" fill="#FFFFFF" />
<rect x="13" y="22" width="1" height="1" fill="#FFFFFF" />
<rect x="14" y="22" width="1" height="1" fill="#FFFFFF" />
<rect x="15" y="22" width="1" height="1" fill="#FFFFFF" />
<rect x="16" y="22" width="1" height="1" fill="#FFFFFF" />
<rect x="17" y="22" width="1" height="1" fill="#FFFFFF" />
<rect x="18" y="22" width="1" height="1" fill="#000000" />
<rect x="19" y="22" width="1" height="1" fill="#C9945D" />
<rect x="20" y="22" width="1" height="1" fill="#C9945D" />
<rect x="5" y="23" width="1" height="1" fill="#C9945D" />
<rect x="7" y="23" width="1" height="1" fill="#000000" />
<rect x="8" y="23" width="1" height="1" fill="#FFFFFF" />
<rect x="9" y="23" width="1" height="1" fill="#FFFFFF" />
<rect x="10" y="23" width="1" height="1" fill="#000000" />
<rect x="11" y="23" width="1" height="1" fill="#000000" />
<rect x="12" y="23" width="1" height="1" fill="#000000" />
<rect x="13" y="23" width="1" height="1" fill="#FFFFFF" />
<rect x="14" y="23" width="1" height="1" fill="#FFFFFF" />
<rect x="15" y="23" width="1" height="1" fill="#000000" />
<rect x="16" y="23" width="1" height="1" fill="#FFFFFF" />
<rect x="17" y="23" width="1" height="1" fill="#FFFFFF" />
<rect x="18" y="23" width="1" height="1" fill="#000000" />
<rect x="19" y="23" width="1" height="1" fill="#C9945D" />
<rect x="20" y="23" width="1" height="1" fill="#C9945D" />
<rect x="5" y="24" width="1" height="1" fill="#C9945D" />
<rect x="7" y="24" width="1" height="1" fill="#000000" />
<rect x="8" y="24" width="1" height="1" fill="#FFFFFF" />
<rect x="9" y="24" width="1" height="1" fill="#FFFFFF" />
<rect x="10" y="24" width="1" height="1" fill="#FFFFFF" />
<rect x="11" y="24" width="1" height="1" fill="#FFFFFF" />
<rect x="12" y="24" width="1" height="1" fill="#000000" />
<rect x="13" y="24" width="1" height="1" fill="#FFFFFF" />
<rect x="14" y="24" width="1" height="1" fill="#FFFFFF" />
<rect x="15" y="24" width="1" height="1" fill="#000000" />
<rect x="16" y="24" width="1" height="1" fill="#FFFFFF" />
<rect x="17" y="24" width="1" height="1" fill="#FFFFFF" />
<rect x="18" y="24" width="1" height="1" fill="#000000" />
<rect x="20" y="24" width="1" height="1" fill="#C9945D" />
<rect x="5" y="25" width="1" height="1" fill="#C9945D" />
<rect x="7" y="25" width="1" height="1" fill="#000000" />
<rect x="8" y="25" width="1" height="1" fill="#FFFFFF" />
<rect x="9" y="25" width="1" height="1" fill="#FFFFFF" />
<rect x="10" y="25" width="1" height="1" fill="#000000" />
<rect x="11" y="25" width="1" height="1" fill="#000000" />
<rect x="12" y="25" width="1" height="1" fill="#000000" />
<rect x="13" y="25" width="1" height="1" fill="#FFFFFF" />
<rect x="14" y="25" width="1" height="1" fill="#FFFFFF" />
<rect x="15" y="25" width="1" height="1" fill="#000000" />
<rect x="16" y="25" width="1" height="1" fill="#FFFFFF" />
<rect x="17" y="25" width="1" height="1" fill="#FFFFFF" />
<rect x="18" y="25" width="1" height="1" fill="#000000" />
<rect x="20" y="25" width="1" height="1" fill="#C9945D" />
<rect x="5" y="26" width="1" height="1" fill="#C9945D" />
<rect x="7" y="26" width="1" height="1" fill="#000000" />
<rect x="8" y="26" width="1" height="1" fill="#FFFFFF" />
<rect x="9" y="26" width="1" height="1" fill="#FFFFFF" />
<rect x="10" y="26" width="1" height="1" fill="#FFFFFF" />
<rect x="11" y="26" width="1" height="1" fill="#FFFFFF" />
<rect x="12" y="26" width="1" height="1" fill="#000000" />
<rect x="13" y="26" width="1" height="1" fill="#FFFFFF" />
<rect x="14" y="26" width="1" height="1" fill="#FFFFFF" />
<rect x="15" y="26" width="1" height="1" fill="#000000" />
<rect x="16" y="26" width="1" height="1" fill="#FFFFFF" />
<rect x="17" y="26" width="1" height="1" fill="#FFFFFF" />
<rect x="18" y="26" width="1" height="1" fill="#000000" />
<rect x="20" y="26" width="1" height="1" fill="#C9945D" />
<rect x="5" y="27" width="1" height="1" fill="#C9945D" />
<rect x="7" y="27" width="1" height="1" fill="#000000" />
<rect x="8" y="27" width="1" height="1" fill="#FFFFFF" />
<rect x="9" y="27" width="1" height="1" fill="#FFFFFF" />
<rect x="10" y="27" width="1" height="1" fill="#000000" />
<rect x="11" y="27" width="1" height="1" fill="#000000" />
<rect x="12" y="27" width="1" height="1" fill="#000000" />
<rect x="13" y="27" width="1" height="1" fill="#FFFFFF" />
<rect x="14" y="27" width="1" height="1" fill="#FFFFFF" />
<rect x="15" y="27" width="1" height="1" fill="#000000" />
<rect x="16" y="27" width="1" height="1" fill="#FFFFFF" />
<rect x="17" y="27" width="1" height="1" fill="#FFFFFF" />
<rect x="18" y="27" width="1" height="1" fill="#000000" />
<rect x="20" y="27" width="1" height="1" fill="#C9945D" />
<rect x="5" y="28" width="1" height="1" fill="#C9945D" />
<rect x="7" y="28" width="1" height="1" fill="#000000" />
<rect x="8" y="28" width="1" height="1" fill="#FFFFFF" />
<rect x="9" y="28" width="1" height="1" fill="#FFFFFF" />
<rect x="10" y="28" width="1" height="1" fill="#FFFFFF" />
<rect x="11" y="28" width="1" height="1" fill="#FFFFFF" />
<rect x="12" y="28" width="1" height="1" fill="#FFFFFF" />
<rect x="13" y="28" width="1" height="1" fill="#FFFFFF" />
<rect x="14" y="28" width="1" height="1" fill="#FFFFFF" />
<rect x="15" y="28" width="1" height="1" fill="#FFFFFF" />
<rect x="16" y="28" width="1" height="1" fill="#FFFFFF" />
<rect x="17" y="28" width="1" height="1" fill="#FFFFFF" />
<rect x="18" y="28" width="1" height="1" fill="#000000" />
<rect x="20" y="28" width="1" height="1" fill="#C9945D" />
<rect x="4" y="29" width="1" height="1" fill="#D9A066" />
<rect x="7" y="29" width="1" height="1" fill="#000000" />
<rect x="8" y="29" width="1" height="1" fill="#FFFFFF" />
<rect x="9" y="29" width="1" height="1" fill="#FFFFFF" />
<rect x="10" y="29" width="1" height="1" fill="#FFFFFF" />
<rect x="11" y="29" width="1" height="1" fill="#FFFFFF" />
<rect x="12" y="29" width="1" height="1" fill="#FFFFFF" />
<rect x="13" y="29" width="1" height="1" fill="#FFFFFF" />
<rect x="14" y="29" width="1" height="1" fill="#FFFFFF" />
<rect x="15" y="29" width="1" height="1" fill="#FFFFFF" />
<rect x="16" y="29" width="1" height="1" fill="#FFFFFF" />
<rect x="17" y="29" width="1" height="1" fill="#FFFFFF" />
<rect x="18" y="29" width="1" height="1" fill="#000000" />
<rect x="20" y="29" width="1" height="1" fill="#C9945D" />
<rect x="4" y="30" width="1" height="1" fill="#D9A066" />
<rect x="7" y="30" width="1" height="1" fill="#000000" />
<rect x="8" y="30" width="1" height="1" fill="#FFFFFF" />
<rect x="9" y="30" width="1" height="1" fill="#FFFFFF" />
<rect x="10" y="30" width="1" height="1" fill="#FFFFFF" />
<rect x="11" y="30" width="1" height="1" fill="#FFFFFF" />
<rect x="12" y="30" width="1" height="1" fill="#FFFFFF" />
<rect x="13" y="30" width="1" height="1" fill="#FFFFFF" />
<rect x="14" y="30" width="1" height="1" fill="#FFFFFF" />
<rect x="15" y="30" width="1" height="1" fill="#FFFFFF" />
<rect x="16" y="30" width="1" height="1" fill="#FFFFFF" />
<rect x="17" y="30" width="1" height="1" fill="#FFFFFF" />
<rect x="18" y="30" width="1" height="1" fill="#000000" />
<rect x="20" y="30" width="1" height="1" fill="#C9945D" />
<rect x="4" y="31" width="1" height="1" fill="#D9A066" />
<rect x="7" y="31" width="1" height="1" fill="#000000" />
<rect x="8" y="31" width="1" height="1" fill="#FFFFFF" />
<rect x="9" y="31" width="1" height="1" fill="#FFFFFF" />
<rect x="10" y="31" width="1" height="1" fill="#FFFFFF" />
<rect x="11" y="31" width="1" height="1" fill="#FFFFFF" />
<rect x="12" y="31" width="1" height="1" fill="#FFFFFF" />
<rect x="13" y="31" width="1" height="1" fill="#FFFFFF" />
<rect x="14" y="31" width="1" height="1" fill="#FFFFFF" />
<rect x="15" y="31" width="1" height="1" fill="#FFFFFF" />
<rect x="16" y="31" width="1" height="1" fill="#FFFFFF" />
<rect x="17" y="31" width="1" height="1" fill="#FFFFFF" />
<rect x="18" y="31" width="1" height="1" fill="#000000" />
<rect x="20" y="31" width="1" height="1" fill="#C9945D" />
<rect x="21" y="31" width="1" height="1" fill="#C9945D" />
<rect x="4" y="32" width="1" height="1" fill="#D9A066" />
<rect x="7" y="32" width="1" height="1" fill="#000000" />
<rect x="8" y="32" width="1" height="1" fill="#FFFFFF" />
<rect x="9" y="32" width="1" height="1" fill="#FFFFFF" />
<rect x="10" y="32" width="1" height="1" fill="#FFFFFF" />
<rect x="11" y="32" width="1" height="1" fill="#FFFFFF" />
<rect x="12" y="32" width="1" height="1" fill="#FFFFFF" />
<rect x="13" y="32" width="1" height="1" fill="#FFFFFF" />
<rect x="14" y="32" width="1" height="1" fill="#FFFFFF" />
<rect x="15" y="32" width="1" height="1" fill="#FFFFFF" />
<rect x="16" y="32" width="1" height="1" fill="#FFFFFF" />
<rect x="17" y="32" width="1" height="1" fill="#FFFFFF" />
<rect x="18" y="32" width="1" height="1" fill="#000000" />
<rect x="21" y="32" width="1" height="1" fill="#C9945D" />
<rect x="22" y="32" width="1" height="1" fill="#C9945D" />
<rect x="4" y="33" width="1" height="1" fill="#D9A066" />
<rect x="7" y="33" width="1" height="1" fill="#000000" />
<rect x="8" y="33" width="1" height="1" fill="#FFFFFF" />
<rect x="9" y="33" width="1" height="1" fill="#FFFFFF" />
<rect x="10" y="33" width="1" height="1" fill="#FFFFFF" />
<rect x="11" y="33" width="1" height="1" fill="#FFFFFF" />
<rect x="12" y="33" width="1" height="1" fill="#FFFFFF" />
<rect x="13" y="33" width="1" height="1" fill="#FFFFFF" />
<rect x="14" y="33" width="1" height="1" fill="#FFFFFF" />
<rect x="15" y="33" width="1" height="1" fill="#FFFFFF" />
<rect x="16" y="33" width="1" height="1" fill="#FFFFFF" />
<rect x="17" y="33" width="1" height="1" fill="#FFFFFF" />
<rect x="18" y="33" width="1" height="1" fill="#000000" />
<rect x="22" y="33" width="1" height="1" fill="#C9945D" />
<rect x="23" y="33" width="1" height="1" fill="#C9945D" />
<rect x="4" y="34" width="1" height="1" fill="#D9A066" />
<rect x="7" y="34" width="1" height="1" fill="#000000" />
<rect x="8" y="34" width="1" height="1" fill="#FFFFFF" />
<rect x="9" y="34" width="1" height="1" fill="#FFFFFF" />
<rect x="10" y="34" width="1" height="1" fill="#FFFFFF" />
<rect x="11" y="34" width="1" height="1" fill="#FFFFFF" />
<rect x="12" y="34" width="1" height="1" fill="#FFFFFF" />
<rect x="13" y="34" width="1" height="1" fill="#FFFFFF" />
<rect x="14" y="34" width="1" height="1" fill="#FFFFFF" />
<rect x="15" y="34" width="1" height="1" fill="#FFFFFF" />
<rect x="16" y="34" width="1" height="1" fill="#FFFFFF" />
<rect x="17" y="34" width="1" height="1" fill="#FFFFFF" />
<rect x="18" y="34" width="1" height="1" fill="#000000" />
<rect x="22" y="34" width="1" height="1" fill="#C9945D" />
<rect x="23" y="34" width="1" height="1" fill="#C9945D" />
<rect x="3" y="35" width="1" height="1" fill="#D9A066" />
<rect x="4" y="35" width="1" height="1" fill="#D9A066" />
<rect x="7" y="35" width="1" height="1" fill="#000000" />
<rect x="8" y="35" width="1" height="1" fill="#FFFFFF" />
<rect x="9" y="35" width="1" height="1" fill="#FFFFFF" />
<rect x="10" y="35" width="1" height="1" fill="#FFFFFF" />
<rect x="11" y="35" width="1" height="1" fill="#FFFFFF" />
<rect x="12" y="35" width="1" height="1" fill="#FFFFFF" />
<rect x="13" y="35" width="1" height="1" fill="#FFFFFF" />
<rect x="14" y="35" width="1" height="1" fill="#FFFFFF" />
<rect x="15" y="35" width="1" height="1" fill="#FFFFFF" />
<rect x="16" y="35" width="1" height="1" fill="#FFFFFF" />
<rect x="17" y="35" width="1" height="1" fill="#FFFFFF" />
<rect x="18" y="35" width="1" height="1" fill="#000000" />
<rect x="3" y="36" width="1" height="1" fill="#D9A066" />
<rect x="7" y="36" width="1" height="1" fill="#000000" />
<rect x="8" y="36" width="1" height="1" fill="#000000" />
<rect x="9" y="36" width="1" height="1" fill="#000000" />
<rect x="10" y="36" width="1" height="1" fill="#000000" />
<rect x="11" y="36" width="1" height="1" fill="#000000" />
<rect x="12" y="36" width="1" height="1" fill="#000000" />
<rect x="13" y="36" width="1" height="1" fill="#000000" />
<rect x="14" y="36" width="1" height="1" fill="#000000" />
<rect x="15" y="36" width="1" height="1" fill="#000000" />
<rect x="16" y="36" width="1" height="1" fill="#000000" />
<rect x="17" y="36" width="1" height="1" fill="#000000" />
<rect x="18" y="36" width="1" height="1" fill="#000000" />
<rect x="2" y="37" width="1" height="1" fill="#D9A066" />
<rect x="3" y="37" width="1" height="1" fill="#D9A066" />
<rect x="7" y="37" width="1" height="1" fill="#000000" />
<rect x="8" y="37" width="1" height="1" fill="#000000" />
<rect x="9" y="37" width="1" height="1" fill="#000000" />
<rect x="10" y="37" width="1" height="1" fill="#000000" />
<rect x="11" y="37" width="1" height="1" fill="#000000" />
<rect x="12" y="37" width="1" height="1" fill="#000000" />
<rect x="13" y="37" width="1" height="1" fill="#000000" />
<rect x="14" y="37" width="1" height="1" fill="#000000" />
<rect x="15" y="37" width="1" height="1" fill="#000000" />
<rect x="16" y="37" width="1" height="1" fill="#000000" />
<rect x="17" y="37" width="1" height="1" fill="#000000" />
<rect x="2" y="38" width="1" height="1" fill="#D9A066" />
<rect x="3" y="38" width="1" height="1" fill="#D9A066" />
<rect x="7" y="38" width="1" height="1" fill="#000000" />
<rect x="8" y="38" width="1" height="1" fill="#000000" />
<rect x="9" y="38" width="1" height="1" fill="#000000" />
<rect x="10" y="38" width="1" height="1" fill="#000000" />
<rect x="11" y="38" width="1" height="1" fill="#000000" />
<rect x="12" y="38" width="1" height="1" fill="#000000" />
<rect x="13" y="38" width="1" height="1" fill="#000000" />
<rect x="14" y="38" width="1" height="1" fill="#000000" />
<rect x="15" y="38" width="1" height="1" fill="#000000" />
<rect x="16" y="38" width="1" height="1" fill="#000000" />
<rect x="17" y="38" width="1" height="1" fill="#000000" />
<rect x="2" y="39" width="1" height="1" fill="#D9A066" />
<rect x="3" y="39" width="1" height="1" fill="#D9A066" />
<rect x="7" y="39" width="1" height="1" fill="#000000" />
<rect x="8" y="39" width="1" height="1" fill="#000000" />
<rect x="9" y="39" width="1" height="1" fill="#000000" />
<rect x="10" y="39" width="1" height="1" fill="#000000" />
<rect x="11" y="39" width="1" height="1" fill="#000000" />
<rect x="12" y="39" width="1" height="1" fill="#000000" />
<rect x="13" y="39" width="1" height="1" fill="#000000" />
<rect x="14" y="39" width="1" height="1" fill="#000000" />
<rect x="15" y="39" width="1" height="1" fill="#000000" />
<rect x="16" y="39" width="1" height="1" fill="#000000" />
<rect x="17" y="39" width="1" height="1" fill="#000000" />
<rect x="7" y="40" width="1" height="1" fill="#000000" />
<rect x="8" y="40" width="1" height="1" fill="#000000" />
<rect x="9" y="40" width="1" height="1" fill="#000000" />
<rect x="10" y="40" width="1" height="1" fill="#000000" />
<rect x="11" y="40" width="1" height="1" fill="#000000" />
<rect x="12" y="40" width="1" height="1" fill="#000000" />
<rect x="13" y="40" width="1" height="1" fill="#000000" />
<rect x="14" y="40" width="1" height="1" fill="#000000" />
<rect x="15" y="40" width="1" height="1" fill="#000000" />
<rect x="16" y="40" width="1" height="1" fill="#000000" />
<rect x="17" y="40" width="1" height="1" fill="#000000" />
<rect x="7" y="41" width="1" height="1" fill="#000000" />
<rect x="8" y="41" width="1" height="1" fill="#000000" />
<rect x="9" y="41" width="1" height="1" fill="#000000" />
<rect x="10" y="41" width="1" height="1" fill="#000000" />
<rect x="11" y="41" width="1" height="1" fill="#000000" />
<rect x="12" y="41" width="1" height="1" fill="#000000" />
<rect x="13" y="41" width="1" height="1" fill="#000000" />
<rect x="14" y="41" width="1" height="1" fill="#000000" />
<rect x="15" y="41" width="1" height="1" fill="#000000" />
<rect x="16" y="41" width="1" height="1" fill="#000000" />
<rect x="17" y="41" width="1" height="1" fill="#000000" />
<rect x="7" y="42" width="1" height="1" fill="#000000" />
<rect x="8" y="42" width="1" height="1" fill="#000000" />
<rect x="9" y="42" width="1" height="1" fill="#000000" />
<rect x="10" y="42" width="1" height="1" fill="#000000" />
<rect x="11" y="42" width="1" height="1" fill="#000000" />
<rect x="12" y="42" width="1" height="1" fill="#000000" />
<rect x="13" y="42" width="1" height="1" fill="#000000" />
<rect x="14" y="42" width="1" height="1" fill="#000000" />
<rect x="15" y="42" width="1" height="1" fill="#000000" />
<rect x="16" y="42" width="1" height="1" fill="#000000" />
<rect x="17" y="42" width="1" height="1" fill="#000000" />
<rect x="7" y="43" width="1" height="1" fill="#000000" />
<rect x="8" y="43" width="1" height="1" fill="#000000" />
<rect x="9" y="43" width="1" height="1" fill="#000000" />
<rect x="10" y="43" width="1" height="1" fill="#000000" />
<rect x="11" y="43" width="1" height="1" fill="#000000" />
<rect x="12" y="43" width="1" height="1" fill="#000000" />
<rect x="13" y="43" width="1" height="1" fill="#000000" />
<rect x="14" y="43" width="1" height="1" fill="#000000" />
<rect x="15" y="43" width="1" height="1" fill="#000000" />
<rect x="16" y="43" width="1" height="1" fill="#000000" />
<rect x="17" y="43" width="1" height="1" fill="#000000" />
<rect x="7" y="44" width="1" height="1" fill="#000000" />
<rect x="8" y="44" width="1" height="1" fill="#000000" />
<rect x="9" y="44" width="1" height="1" fill="#000000" />
<rect x="10" y="44" width="1" height="1" fill="#000000" />
<rect x="11" y="44" width="1" height="1" fill="#000000" />
<rect x="12" y="44" width="1" height="1" fill="#000000" />
<rect x="13" y="44" width="1" height="1" fill="#000000" />
<rect x="14" y="44" width="1" height="1" fill="#000000" />
<rect x="15" y="44" width="1" height="1" fill="#000000" />
<rect x="16" y="44" width="1" height="1" fill="#000000" />
<rect x="17" y="44" width="1" height="1" fill="#000000" />
<rect x="7" y="45" width="1" height="1" fill="#000000" />
<rect x="8" y="45" width="1" height="1" fill="#000000" />
<rect x="9" y="45" width="1" height="1" fill="#000000" />
<rect x="10" y="45" width="1" height="1" fill="#000000" />
<rect x="11" y="45" width="1" height="1" fill="#000000" />
<rect x="14" y="45" width="1" height="1" fill="#000000" />
<rect x="15" y="45" width="1" height="1" fill="#000000" />
<rect x="16" y="45" width="1" height="1" fill="#000000" />
<rect x="17" y="45" width="1" height="1" fill="#000000" />
<rect x="7" y="46" width="1" height="1" fill="#000000" />
<rect x="8" y="46" width="1" height="1" fill="#000000" />
<rect x="9" y="46" width="1" height="1" fill="#000000" />
<rect x="10" y="46" width="1" height="1" fill="#000000" />
<rect x="11" y="46" width="1" height="1" fill="#000000" />
<rect x="14" y="46" width="1" height="1" fill="#000000" />
<rect x="15" y="46" width="1" height="1" fill="#000000" />
<rect x="16" y="46" width="1" height="1" fill="#000000" />
<rect x="17" y="46" width="1" height="1" fill="#000000" />
<rect x="7" y="47" width="1" height="1" fill="#000000" />
<rect x="8" y="47" width="1" height="1" fill="#000000" />
<rect x="9" y="47" width="1" height="1" fill="#000000" />
<rect x="10" y="47" width="1" height="1" fill="#000000" />
<rect x="11" y="47" width="1" height="1" fill="#000000" />
<rect x="14" y="47" width="1" height="1" fill="#000000" />
<rect x="15" y="47" width="1" height="1" fill="#000000" />
<rect x="16" y="47" width="1" height="1" fill="#000000" />
<rect x="17" y="47" width="1" height="1" fill="#000000" />
<rect x="8" y="48" width="1" height="1" fill="#000000" />
<rect x="9" y="48" width="1" height="1" fill="#000000" />
<rect x="10" y="48" width="1" height="1" fill="#000000" />
<rect x="15" y="48" width="1" height="1" fill="#000000" />
<rect x="16" y="48" width="1" height="1" fill="#000000" />
<rect x="17" y="48" width="1" height="1" fill="#000000" />
<rect x="9" y="49" width="1" height="1" fill="#C9945D" />
<rect x="16" y="49" width="1" height="1" fill="#C9945D" />
<rect x="9" y="50" width="1" height="1" fill="#C9945D" />
<rect x="16" y="50" width="1" height="1" fill="#C9945D" />
<rect x="9" y="51" width="1" height="1" fill="#C9945D" />
<rect x="16" y="51" width="1" height="1" fill="#C9945D" />
<rect x="9" y="52" width="1" height="1" fill="#C9945D" />
<rect x="16" y="52" width="1" height="1" fill="#C9945D" />
<rect x="6" y="53" width="1" height="1" fill="#C9945D" />
<rect x="7" y="53" width="1" height="1" fill="#C9945D" />
<rect x="8" y="53" width="1" height="1" fill="#C9945D" />
<rect x="9" y="53" width="1" height="1" fill="#C9945D" />
<rect x="15" y="53" width="1" height="1" fill="#C9945D" />
<rect x="16" y="53" width="1" height="1" fill="#C9945D" />
<rect x="6" y="54" width="1" height="1" fill="#C9945D" />
<rect x="15" y="54" width="1" height="1" fill="#C9945D" />
<rect x="6" y="55" width="1" height="1" fill="#C9945D" />
<rect x="15" y="55" width="1" height="1" fill="#C9945D" />
<rect x="6" y="56" width="1" height="1" fill="#C9945D" />
<rect x="15" y="56" width="1" height="1" fill="#C9945D" />
<rect x="6" y="57" width="1" height="1" fill="#000000" />
<rect x="15" y="57" width="1" height="1" fill="#000000" />
<rect x="6" y="58" width="1" height="1" fill="#000000" />
<rect x="15" y="58" width="1" height="1" fill="#000000" />
<rect x="6" y="59" width="1" height="1" fill="#000000" />
<rect x="15" y="59" width="1" height="1" fill="#000000" />
<rect x="6" y="60" width="1" height="1" fill="#FFFFFF" />
<rect x="15" y="60" width="1" height="1" fill="#FFFFFF" />
<rect x="5" y="61" width="1" height="1" fill="#FFFFFF" />
<rect x="6" y="61" width="1" height="1" fill="#FFFFFF" />
<rect x="15" y="61" width="1" height="1" fill="#FFFFFF" />
<rect x="16" y="61" width="1" height="1" fill="#FFFFFF" />
<rect x="5" y="62" width="1" height="1" fill="#FFFFFF" />
<rect x="6" y="62" width="1" height="1" fill="#FFFFFF" />
<rect x="7" y="62" width="1" height="1" fill="#FFFFFF" />
<rect x="8" y="62" width="1" height="1" fill="#FFFFFF" />
<rect x="9" y="62" width="1" height="1" fill="#FFFFFF" />
<rect x="15" y="62" width="1" height="1" fill="#FFFFFF" />
<rect x="16" y="62" width="1" height="1" fill="#FFFFFF" />
<rect x="17" y="62" width="1" height="1" fill="#FFFFFF" />
<rect x="18" y="62" width="1" height="1" fill="#FFFFFF" />
<rect x="19" y="62" width="1" height="1" fill="#FFFFFF" />
<rect x="5" y="63" width="1" height="1" fill="#000000" />
<rect x="6" y="63" width="1" height="1" fill="#000000" />
<rect x="7" y="63" width="1" height="1" fill="#000000" />
<rect x="8" y="63" width="1" height="1" fill="#000000" />
<rect x="9" y="63" width="1" height="1" fill="#000000" />
<rect x="15" y="63" width="1" height="1" fill="#000000" />
<rect x="16" y="63" width="1" height="1" fill="#000000" />
<rect x="17" y="63" width="1" height="1" fill="#000000" />
<rect x="18" y="63" width="1" height="1" fill="#000000" />
<rect x="19" y="63" width="1" height="1" fill="#000000" />
</svg>