<?xml version="1.0" encoding="UTF-8" ?>
<svg version="1.1" width="16" height="80" xmlns="http://www.w3.org/2000/svg" shape-rendering="crispEdges">
<rect x="4" y="0" width="1" height="1" fill="#000000" />
<rect x="5" y="0" width="1" height="1" fill="#000000" />
<rect x="6" y="0" width="1" height="1" fill="#000000" />
<rect x="7" y="0" width="1" height="1" fill="#000000" />
<rect x="8" y="0" width="1" height="1" fill="#000000" />
<rect x="9" y="0" width="1" height="1" fill="#000000" />
<rect x="10" y="0" width="1" height="1" fill="#000000" />
<rect x="11" y="0" width="1" height="1" fill="#000000" />
<rect x="4" y="1" width="1" height="1" fill="#000000" />
<rect x="5" y="1" width="1" height="1" fill="#000000" />
<rect x="6" y="1" width="1" height="1" fill="#000000" />
<rect x="7" y="1" width="1" height="1" fill="#000000" />
<rect x="8" y="1" width="1" height="1" fill="#000000" />
<rect x="9" y="1" width="1" height="1" fill="#000000" />
<rect x="10" y="1" width="1" height="1" fill="#000000" />
<rect x="11" y="1" width="1" height="1" fill="#000000" />
<rect x="4" y="2" width="1" height="1" fill="#000000" />
<rect x="5" y="2" width="1" height="1" fill="#000000" />
<rect x="6" y="2" width="1" height="1" fill="#000000" />
<rect x="7" y="2" width="1" height="1" fill="#000000" />
<rect x="8" y="2" width="1" height="1" fill="#000000" />
<rect x="9" y="2" width="1" height="1" fill="#000000" />
<rect x="10" y="2" width="1" height="1" fill="#000000" />
<rect x="11" y="2" width="1" height="1" fill="#000000" />
<rect x="4" y="3" width="1" height="1" fill="#000000" />
<rect x="5" y="3" width="1" height="1" fill="#000000" />
<rect x="6" y="3" width="1" height="1" fill="#000000" />
<rect x="7" y="3" width="1" height="1" fill="#000000" />
<rect x="8" y="3" width="1" height="1" fill="#000000" />
<rect x="9" y="3" width="1" height="1" fill="#000000" />
<rect x="10" y="3" width="1" height="1" fill="#000000" />
<rect x="11" y="3" width="1" height="1" fill="#000000" />
<rect x="4" y="4" width="1" height="1" fill="#000000" />
<rect x="5" y="4" width="1" height="1" fill="#000000" />
<rect x="6" y="4" width="1" height="1" fill="#000000" />
<rect x="7" y="4" width="1" height="1" fill="#000000" />
<rect x="8" y="4" width="1" height="1" fill="#000000" />
<rect x="9" y="4" width="1" height="1" fill="#000000" />
<rect x="10" y="4" width="1" height="1" fill="#000000" />
<rect x="11" y="4" width="1" height="1" fill="#000000" />
<rect x="4" y="5" width="1" height="1" fill="#000000" />
<rect x="5" y="5" width="1" height="1" fill="#000000" />
<rect x="6" y="5" width="1" height="1" fill="#000000" />
<rect x="7" y="5" width="1" height="1" fill="#000000" />
<rect x="8" y="5" width="1" height="1" fill="#000000" />
<rect x="9" y="5" width="1" height="1" fill="#000000" />
<rect x="10" y="5" width="1" height="1" fill="#000000" />
<rect x="11" y="5" width="1" height="1" fill="#000000" />
<rect x="4" y="6" width="1" height="1" fill="#000000" />
<rect x="5" y="6" width="1" height="1" fill="#000000" />
<rect x="6" y="6" width="1" height="1" fill="#000000" />
<rect x="7" y="6" width="1" height="1" fill="#000000" />
<rect x="8" y="6" width="1" height="1" fill="#000000" />
<rect x="9" y="6" width="1" height="1" fill="#000000" />
<rect x="10" y="6" width="1" height="1" fill="#000000" />
<rect x="11" y="6" width="1" height="1" fill="#000000" />
<rect x="4" y="7" width="1" height="1" fill="#000000" />
<rect x="5" y="7" width="1" height="1" fill="#000000" />
<rect x="6" y="7" width="1" height="1" fill="#000000" />
<rect x="7" y="7" width="1" height="1" fill="#000000" />
<rect x="8" y="7" width="1" height="1" fill="#000000" />
<rect x="9" y="7" width="1" height="1" fill="#000000" />
<rect x="10" y="7" width="1" height="1" fill="#000000" />
<rect x="11" y="7" width="1" height="1" fill="#000000" />
<rect x="4" y="8" width="1" height="1" fill="#000000" />
<rect x="5" y="8" width="1" height="1" fill="#000000" />
<rect x="6" y="8" width="1" height="1" fill="#000000" />
<rect x="7" y="8" width="1" height="1" fill="#000000" />
<rect x="8" y="8" width="1" height="1" fill="#000000" />
<rect x="9" y="8" width="1" height="1" fill="#000000" />
<rect x="10" y="8" width="1" height="1" fill="#000000" />
<rect x="11" y="8" width="1" height="1" fill="#000000" />
<rect x="4" y="9" width="1" height="1" fill="#000000" />
<rect x="5" y="9" width="1" height="1" fill="#000000" />
<rect x="6" y="9" width="1" height="1" fill="#000000" />
<rect x="7" y="9" width="1" height="1" fill="#000000" />
<rect x="8" y="9" width="1" height="1" fill="#000000" />
<rect x="9" y="9" width="1" height="1" fill="#000000" />
<rect x="10" y="9" width="1" height="1" fill="#000000" />
<rect x="11" y="9" width="1" height="1" fill="#000000" />
<rect x="4" y="10" width="1" height="1" fill="#000000" />
<rect x="5" y="10" width="1" height="1" fill="#000000" />
<rect x="6" y="10" width="1" height="1" fill="#000000" />
<rect x="7" y="10" width="1" height="1" fill="#000000" />
<rect x="8" y="10" width="1" height="1" fill="#000000" />
<rect x="9" y="10" width="1" height="1" fill="#000000" />
<rect x="10" y="10" width="1" height="1" fill="#000000" />
<rect x="11" y="10" width="1" height="1" fill="#000000" />
<rect x="4" y="11" width="1" height="1" fill="#000000" />
<rect x="5" y="11" width="1" height="1" fill="#000000" />
<rect x="6" y="11" width="1" height="1" fill="#000000" />
<rect x="7" y="11" width="1" height="1" fill="#000000" />
<rect x="8" y="11" width="1" height="1" fill="#000000" />
<rect x="9" y="11" width="1" height="1" fill="#000000" />
<rect x="10" y="11" width="1" height="1" fill="#000000" />
<rect x="11" y="11" width="1" height="1" fill="#000000" />
<rect x="4" y="12" width="1" height="1" fill="#000000" />
<rect x="5" y="12" width="1" height="1" fill="#000000" />
<rect x="6" y="12" width="1" height="1" fill="#000000" />
<rect x="7" y="12" width="1" height="1" fill="#000000" />
<rect x="8" y="12" width="1" height="1" fill="#000000" />
<rect x="9" y="12" width="1" height="1" fill="#000000" />
<rect x="10" y="12" width="1" height="1" fill="#000000" />
<rect x="11" y="12" width="1" height="1" fill="#000000" />
<rect x="4" y="13" width="1" height="1" fill="#000000" />
<rect x="5" y="13" width="1" height="1" fill="#000000" />
<rect x="6" y="13" width="1" height="1" fill="#000000" />
<rect x="7" y="13" width="1" height="1" fill="#000000" />
<rect x="8" y="13" width="1" height="1" fill="#000000" />
<rect x="9" y="13" width="1" height="1" fill="#000000" />
<rect x="10" y="13" width="1" height="1" fill="#000000" />
<rect x="11" y="13" width="1" height="1" fill="#000000" />
<rect x="4" y="14" width="1" height="1" fill="#000000" />
<rect x="5" y="14" width="1" height="1" fill="#000000" />
<rect x="6" y="14" width="1" height="1" fill="#000000" />
<rect x="7" y="14" width="1" height="1" fill="#000000" />
<rect x="8" y="14" width="1" height="1" fill="#000000" />
<rect x="9" y="14" width="1" height="1" fill="#000000" />
<rect x="10" y="14" width="1" height="1" fill="#000000" />
<rect x="11" y="14" width="1" height="1" fill="#000000" />
<rect x="4" y="15" width="1" height="1" fill="#000000" />
<rect x="5" y="15" width="1" height="1" fill="#000000" />
<rect x="6" y="15" width="1" height="1" fill="#000000" />
<rect x="7" y="15" width="1" height="1" fill="#000000" />
<rect x="8" y="15" width="1" height="1" fill="#000000" />
<rect x="9" y="15" width="1" height="1" fill="#000000" />
<rect x="10" y="15" width="1" height="1" fill="#000000" />
<rect x="11" y="15" width="1" height="1" fill="#000000" />
<rect x="4" y="16" width="1" height="1" fill="#000000" />
<rect x="5" y="16" width="1" height="1" fill="#000000" />
<rect x="6" y="16" width="1" height="1" fill="#000000" />
<rect x="7" y="16" width="1" height="1" fill="#000000" />
<rect x="8" y="16" width="1" height="1" fill="#000000" />
<rect x="9" y="16" width="1" height="1" fill="#000000" />
<rect x="10" y="16" width="1" height="1" fill="#000000" />
<rect x="11" y="16" width="1" height="1" fill="#000000" />
<rect x="4" y="17" width="1" height="1" fill="#000000" />
<rect x="5" y="17" width="1" height="1" fill="#000000" />
<rect x="6" y="17" width="1" height="1" fill="#000000" />
<rect x="7" y="17" width="1" height="1" fill="#000000" />
<rect x="8" y="17" width="1" height="1" fill="#000000" />
<rect x="9" y="17" width="1" height="1" fill="#000000" />
<rect x="10" y="17" width="1" height="1" fill="#000000" />
<rect x="11" y="17" width="1" height="1" fill="#000000" />
<rect x="4" y="18" width="1" height="1" fill="#000000" />
<rect x="5" y="18" width="1" height="1" fill="#000000" />
<rect x="6" y="18" width="1" height="1" fill="#000000" />
<rect x="7" y="18" width="1" height="1" fill="#000000" />
<rect x="8" y="18" width="1" height="1" fill="#000000" />
<rect x="9" y="18" width="1" height="1" fill="#000000" />
<rect x="10" y="18" width="1" height="1" fill="#000000" />
<rect x="11" y="18" width="1" height="1" fill="#000000" />
<rect x="4" y="19" width="1" height="1" fill="#000000" />
<rect x="5" y="19" width="1" height="1" fill="#000000" />
<rect x="6" y="19" width="1" height="1" fill="#000000" />
<rect x="7" y="19" width="1" height="1" fill="#000000" />
<rect x="8" y="19" width="1" height="1" fill="#000000" />
<rect x="9" y="19" width="1" height="1" fill="#000000" />
<rect x="10" y="19" width="1" height="1" fill="#000000" />
<rect x="11" y="19" width="1" height="1" fill="#000000" />
<rect x="4" y="20" width="1" height="1" fill="#000000" />
<rect x="5" y="20" width="1" height="1" fill="#000000" />
<rect x="6" y="20" width="1" height="1" fill="#000000" />
<rect x="7" y="20" width="1" height="1" fill="#000000" />
<rect x="8" y="20" width="1" height="1" fill="#000000" />
<rect x="9" y="20" width="1" height="1" fill="#000000" />
<rect x="10" y="20" width="1" height="1" fill="#000000" />
<rect x="11" y="20" width="1" height="1" fill="#000000" />
<rect x="4" y="21" width="1" height="1" fill="#000000" />
<rect x="5" y="21" width="1" height="1" fill="#000000" />
<rect x="6" y="21" width="1" height="1" fill="#000000" />
<rect x="7" y="21" width="1" height="1" fill="#000000" />
<rect x="8" y="21" width="1" height="1" fill="#000000" />
<rect x="9" y="21" width="1" height="1" fill="#000000" />
<rect x="10" y="21" width="1" height="1" fill="#000000" />
<rect x="11" y="21" width="1" height="1" fill="#000000" />
<rect x="4" y="22" width="1" height="1" fill="#000000" />
<rect x="5" y="22" width="1" height="1" fill="#000000" />
<rect x="6" y="22" width="1" height="1" fill="#000000" />
<rect x="7" y="22" width="1" height="1" fill="#000000" />
<rect x="8" y="22" width="1" height="1" fill="#000000" />
<rect x="9" y="22" width="1" height="1" fill="#000000" />
<rect x="10" y="22" width="1" height="1" fill="#000000" />
<rect x="11" y="22" width="1" height="1" fill="#000000" />
<rect x="4" y="23" width="1" height="1" fill="#000000" />
<rect x="5" y="23" width="1" height="1" fill="#000000" />
<rect x="6" y="23" width="1" height="1" fill="#000000" />
<rect x="7" y="23" width="1" height="1" fill="#000000" />
<rect x="8" y="23" width="1" height="1" fill="#000000" />
<rect x="9" y="23" width="1" height="1" fill="#000000" />
<rect x="10" y="23" width="1" height="1" fill="#000000" />
<rect x="11" y="23" width="1" height="1" fill="#000000" />
<rect x="4" y="24" width="1" height="1" fill="#000000" />
<rect x="5" y="24" width="1" height="1" fill="#000000" />
<rect x="6" y="24" width="1" height="1" fill="#000000" />
<rect x="7" y="24" width="1" height="1" fill="#000000" />
<rect x="8" y="24" width="1" height="1" fill="#000000" />
<rect x="9" y="24" width="1" height="1" fill="#000000" />
<rect x="10" y="24" width="1" height="1" fill="#000000" />
<rect x="11" y="24" width="1" height="1" fill="#000000" />
<rect x="4" y="25" width="1" height="1" fill="#000000" />
<rect x="5" y="25" width="1" height="1" fill="#000000" />
<rect x="6" y="25" width="1" height="1" fill="#000000" />
<rect x="7" y="25" width="1" height="1" fill="#000000" />
<rect x="8" y="25" width="1" height="1" fill="#000000" />
<rect x="9" y="25" width="1" height="1" fill="#000000" />
<rect x="10" y="25" width="1" height="1" fill="#000000" />
<rect x="11" y="25" width="1" height="1" fill="#000000" />
<rect x="4" y="26" width="1" height="1" fill="#000000" />
<rect x="5" y="26" width="1" height="1" fill="#000000" />
<rect x="6" y="26" width="1" height="1" fill="#000000" />
<rect x="7" y="26" width="1" height="1" fill="#000000" />
<rect x="8" y="26" width="1" height="1" fill="#000000" />
<rect x="9" y="26" width="1" height="1" fill="#000000" />
<rect x="10" y="26" width="1" height="1" fill="#000000" />
<rect x="11" y="26" width="1" height="1" fill="#000000" />
<rect x="4" y="27" width="1" height="1" fill="#000000" />
<rect x="5" y="27" width="1" height="1" fill="#000000" />
<rect x="6" y="27" width="1" height="1" fill="#000000" />
<rect x="7" y="27" width="1" height="1" fill="#000000" />
<rect x="8" y="27" width="1" height="1" fill="#000000" />
<rect x="9" y="27" width="1" height="1" fill="#000000" />
<rect x="10" y="27" width="1" height="1" fill="#000000" />
<rect x="11" y="27" width="1" height="1" fill="#000000" />
<rect x="4" y="28" width="1" height="1" fill="#000000" />
<rect x="5" y="28" width="1" height="1" fill="#000000" />
<rect x="6" y="28" width="1" height="1" fill="#000000" />
<rect x="7" y="28" width="1" height="1" fill="#000000" />
<rect x="8" y="28" width="1" height="1" fill="#000000" />
<rect x="9" y="28" width="1" height="1" fill="#000000" />
<rect x="10" y="28" width="1" height="1" fill="#000000" />
<rect x="11" y="28" width="1" height="1" fill="#000000" />
<rect x="4" y="29" width="1" height="1" fill="#000000" />
<rect x="5" y="29" width="1" height="1" fill="#000000" />
<rect x="6" y="29" width="1" height="1" fill="#000000" />
<rect x="7" y="29" width="1" height="1" fill="#000000" />
<rect x="8" y="29" width="1" height="1" fill="#000000" />
<rect x="9" y="29" width="1" height="1" fill="#000000" />
<rect x="10" y="29" width="1" height="1" fill="#000000" />
<rect x="11" y="29" width="1" height="1" fill="#000000" />
<rect x="4" y="30" width="1" height="1" fill="#000000" />
<rect x="5" y="30" width="1" height="1" fill="#000000" />
<rect x="6" y="30" width="1" height="1" fill="#000000" />
<rect x="7" y="30" width="1" height="1" fill="#000000" />
<rect x="8" y="30" width="1" height="1" fill="#000000" />
<rect x="9" y="30" width="1" height="1" fill="#000000" />
<rect x="10" y="30" width="1" height="1" fill="#000000" />
<rect x="11" y="30" width="1" height="1" fill="#000000" />
<rect x="4" y="31" width="1" height="1" fill="#000000" />
<rect x="5" y="31" width="1" height="1" fill="#000000" />
<rect x="6" y="31" width="1" height="1" fill="#000000" />
<rect x="7" y="31" width="1" height="1" fill="#000000" />
<rect x="8" y="31" width="1" height="1" fill="#000000" />
<rect x="9" y="31" width="1" height="1" fill="#000000" />
<rect x="10" y="31" width="1" height="1" fill="#000000" />
<rect x="11" y="31" width="1" height="1" fill="#000000" />
<rect x="4" y="32" width="1" height="1" fill="#000000" />
<rect x="5" y="32" width="1" height="1" fill="#000000" />
<rect x="6" y="32" width="1" height="1" fill="#000000" />
<rect x="7" y="32" width="1" height="1" fill="#000000" />
<rect x="8" y="32" width="1" height="1" fill="#000000" />
<rect x="9" y="32" width="1" height="1" fill="#000000" />
<rect x="10" y="32" width="1" height="1" fill="#000000" />
<rect x="11" y="32" width="1" height="1" fill="#000000" />
<rect x="4" y="33" width="1" height="1" fill="#000000" />
<rect x="5" y="33" width="1" height="1" fill="#000000" />
<rect x="6" y="33" width="1" height="1" fill="#000000" />
<rect x="7" y="33" width="1" height="1" fill="#000000" />
<rect x="8" y="33" width="1" height="1" fill="#000000" />
<rect x="9" y="33" width="1" height="1" fill="#000000" />
<rect x="10" y="33" width="1" height="1" fill="#000000" />
<rect x="11" y="33" width="1" height="1" fill="#000000" />
<rect x="4" y="34" width="1" height="1" fill="#000000" />
<rect x="5" y="34" width="1" height="1" fill="#000000" />
<rect x="6" y="34" width="1" height="1" fill="#000000" />
<rect x="7" y="34" width="1" height="1" fill="#000000" />
<rect x="8" y="34" width="1" height="1" fill="#000000" />
<rect x="9" y="34" width="1" height="1" fill="#000000" />
<rect x="10" y="34" width="1" height="1" fill="#000000" />
<rect x="11" y="34" width="1" height="1" fill="#000000" />
<rect x="4" y="35" width="1" height="1" fill="#000000" />
<rect x="5" y="35" width="1" height="1" fill="#000000" />
<rect x="6" y="35" width="1" height="1" fill="#000000" />
<rect x="7" y="35" width="1" height="1" fill="#000000" />
<rect x="8" y="35" width="1" height="1" fill="#000000" />
<rect x="9" y="35" width="1" height="1" fill="#000000" />
<rect x="10" y="35" width="1" height="1" fill="#000000" />
<rect x="11" y="35" width="1" height="1" fill="#000000" />
<rect x="4" y="36" width="1" height="1" fill="#000000" />
<rect x="5" y="36" width="1" height="1" fill="#000000" />
<rect x="6" y="36" width="1" height="1" fill="#000000" />
<rect x="7" y="36" width="1" height="1" fill="#000000" />
<rect x="8" y="36" width="1" height="1" fill="#000000" />
<rect x="9" y="36" width="1" height="1" fill="#000000" />
<rect x="10" y="36" width="1" height="1" fill="#000000" />
<rect x="11" y="36" width="1" height="1" fill="#000000" />
<rect x="4" y="37" width="1" height="1" fill="#000000" />
<rect x="5" y="37" width="1" height="1" fill="#000000" />
<rect x="6" y="37" width="1" height="1" fill="#000000" />
<rect x="7" y="37" width="1" height="1" fill="#000000" />
<rect x="8" y="37" width="1" height="1" fill="#000000" />
<rect x="9" y="37" width="1" height="1" fill="#000000" />
<rect x="10" y="37" width="1" height="1" fill="#000000" />
<rect x="11" y="37" width="1" height="1" fill="#000000" />
<rect x="4" y="38" width="1" height="1" fill="#000000" />
<rect x="5" y="38" width="1" height="1" fill="#000000" />
<rect x="6" y="38" width="1" height="1" fill="#000000" />
<rect x="7" y="38" width="1" height="1" fill="#000000" />
<rect x="8" y="38" width="1" height="1" fill="#000000" />
<rect x="9" y="38" width="1" height="1" fill="#000000" />
<rect x="10" y="38" width="1" height="1" fill="#000000" />
<rect x="11" y="38" width="1" height="1" fill="#000000" />
<rect x="4" y="39" width="1" height="1" fill="#000000" />
<rect x="5" y="39" width="1" height="1" fill="#000000" />
<rect x="6" y="39" width="1" height="1" fill="#000000" />
<rect x="7" y="39" width="1" height="1" fill="#000000" />
<rect x="8" y="39" width="1" height="1" fill="#000000" />
<rect x="9" y="39" width="1" height="1" fill="#000000" />
<rect x="10" y="39" width="1" height="1" fill="#000000" />
<rect x="11" y="39" width="1" height="1" fill="#000000" />
<rect x="4" y="40" width="1" height="1" fill="#000000" />
<rect x="5" y="40" width="1" height="1" fill="#000000" />
<rect x="6" y="40" width="1" height="1" fill="#000000" />
<rect x="7" y="40" width="1" height="1" fill="#000000" />
<rect x="8" y="40" width="1" height="1" fill="#000000" />
<rect x="9" y="40" width="1" height="1" fill="#000000" />
<rect x="10" y="40" width="1" height="1" fill="#000000" />
<rect x="11" y="40" width="1" height="1" fill="#000000" />
<rect x="4" y="41" width="1" height="1" fill="#000000" />
<rect x="5" y="41" width="1" height="1" fill="#000000" />
<rect x="6" y="41" width="1" height="1" fill="#000000" />
<rect x="7" y="41" width="1" height="1" fill="#000000" />
<rect x="8" y="41" width="1" height="1" fill="#000000" />
<rect x="9" y="41" width="1" height="1" fill="#000000" />
<rect x="10" y="41" width="1" height="1" fill="#000000" />
<rect x="11" y="41" width="1" height="1" fill="#000000" />
<rect x="4" y="42" width="1" height="1" fill="#000000" />
<rect x="5" y="42" width="1" height="1" fill="#000000" />
<rect x="6" y="42" width="1" height="1" fill="#000000" />
<rect x="7" y="42" width="1" height="1" fill="#000000" />
<rect x="8" y="42" width="1" height="1" fill="#000000" />
<rect x="9" y="42" width="1" height="1" fill="#000000" />
<rect x="10" y="42" width="1" height="1" fill="#000000" />
<rect x="11" y="42" width="1" height="1" fill="#000000" />
<rect x="4" y="43" width="1" height="1" fill="#000000" />
<rect x="5" y="43" width="1" height="1" fill="#000000" />
<rect x="6" y="43" width="1" height="1" fill="#000000" />
<rect x="7" y="43" width="1" height="1" fill="#000000" />
<rect x="8" y="43" width="1" height="1" fill="#000000" />
<rect x="9" y="43" width="1" height="1" fill="#000000" />
<rect x="10" y="43" width="1" height="1" fill="#000000" />
<rect x="11" y="43" width="1" height="1" fill="#000000" />
<rect x="4" y="44" width="1" height="1" fill="#000000" />
<rect x="5" y="44" width="1" height="1" fill="#000000" />
<rect x="6" y="44" width="1" height="1" fill="#000000" />
<rect x="7" y="44" width="1" height="1" fill="#000000" />
<rect x="8" y="44" width="1" height="1" fill="#000000" />
<rect x="9" y="44" width="1" height="1" fill="#000000" />
<rect x="10" y="44" width="1" height="1" fill="#000000" />
<rect x="11" y="44" width="1" height="1" fill="#000000" />
<rect x="4" y="45" width="1" height="1" fill="#000000" />
<rect x="5" y="45" width="1" height="1" fill="#000000" />
<rect x="6" y="45" width="1" height="1" fill="#000000" />
<rect x="7" y="45" width="1" height="1" fill="#000000" />
<rect x="8" y="45" width="1" height="1" fill="#000000" />
<rect x="9" y="45" width="1" height="1" fill="#000000" />
<rect x="10" y="45" width="1" height="1" fill="#000000" />
<rect x="11" y="45" width="1" height="1" fill="#000000" />
<rect x="4" y="46" width="1" height="1" fill="#000000" />
<rect x="5" y="46" width="1" height="1" fill="#000000" />
<rect x="6" y="46" width="1" height="1" fill="#000000" />
<rect x="7" y="46" width="1" height="1" fill="#000000" />
<rect x="8" y="46" width="1" height="1" fill="#000000" />
<rect x="9" y="46" width="1" height="1" fill="#000000" />
<rect x="10" y="46" width="1" height="1" fill="#000000" />
<rect x="11" y="46" width="1" height="1" fill="#000000" />
<rect x="4" y="47" width="1" height="1" fill="#000000" />
<rect x="5" y="47" width="1" height="1" fill="#000000" />
<rect x="6" y="47" width="1" height="1" fill="#000000" />
<rect x="7" y="47" width="1" height="1" fill="#000000" />
<rect x="8" y="47" width="1" height="1" fill="#000000" />
<rect x="9" y="47" width="1" height="1" fill="#000000" />
<rect x="10" y="47" width="1" height="1" fill="#000000" />
<rect x="11" y="47" width="1" height="1" fill="#000000" />
<rect x="4" y="48" width="1" height="1" fill="#000000" />
<rect x="5" y="48" width="1" height="1" fill="#000000" />
<rect x="6" y="48" width="1" height="1" fill="#000000" />
<rect x="7" y="48" width="1" height="1" fill="#000000" />
<rect x="8" y="48" width="1" height="1" fill="#000000" />
<rect x="9" y="48" width="1" height="1" fill="#000000" />
<rect x="10" y="48" width="1" height="1" fill="#000000" />
<rect x="11" y="48" width="1" height="1" fill="#000000" />
<rect x="4" y="49" width="1" height="1" fill="#000000" />
<rect x="5" y="49" width="1" height="1" fill="#000000" />
<rect x="6" y="49" width="1" height="1" fill="#000000" />
<rect x="7" y="49" width="1" height="1" fill="#000000" />
<rect x="8" y="49" width="1" height="1" fill="#000000" />
<rect x="9" y="49" width="1" height="1" fill="#000000" />
<rect x="10" y="49" width="1" height="1" fill="#000000" />
<rect x="11" y="49" width="1" height="1" fill="#000000" />
<rect x="4" y="50" width="1" height="1" fill="#000000" />
<rect x="5" y="50" width="1" height="1" fill="#000000" />
<rect x="6" y="50" width="1" height="1" fill="#000000" />
<rect x="7" y="50" width="1" height="1" fill="#000000" />
<rect x="8" y="50" width="1" height="1" fill="#000000" />
<rect x="9" y="50" width="1" height="1" fill="#000000" />
<rect x="10" y="50" width="1" height="1" fill="#000000" />
<rect x="11" y="50" width="1" height="1" fill="#000000" />
<rect x="4" y="51" width="1" height="1" fill="#000000" />
<rect x="5" y="51" width="1" height="1" fill="#000000" />
<rect x="6" y="51" width="1" height="1" fill="#000000" />
<rect x="7" y="51" width="1" height="1" fill="#000000" />
<rect x="8" y="51" width="1" height="1" fill="#000000" />
<rect x="9" y="51" width="1" height="1" fill="#000000" />
<rect x="10" y="51" width="1" height="1" fill="#000000" />
<rect x="11" y="51" width="1" height="1" fill="#000000" />
<rect x="4" y="52" width="1" height="1" fill="#000000" />
<rect x="5" y="52" width="1" height="1" fill="#000000" />
<rect x="6" y="52" width="1" height="1" fill="#000000" />
<rect x="7" y="52" width="1" height="1" fill="#000000" />
<rect x="8" y="52" width="1" height="1" fill="#000000" />
<rect x="9" y="52" width="1" height="1" fill="#000000" />
<rect x="10" y="52" width="1" height="1" fill="#000000" />
<rect x="11" y="52" width="1" height="1" fill="#000000" />
<rect x="4" y="53" width="1" height="1" fill="#000000" />
<rect x="5" y="53" width="1" height="1" fill="#000000" />
<rect x="6" y="53" width="1" height="1" fill="#000000" />
<rect x="7" y="53" width="1" height="1" fill="#000000" />
<rect x="8" y="53" width="1" height="1" fill="#000000" />
<rect x="9" y="53" width="1" height="1" fill="#000000" />
<rect x="10" y="53" width="1" height="1" fill="#000000" />
<rect x="11" y="53" width="1" height="1" fill="#000000" />
<rect x="4" y="54" width="1" height="1" fill="#000000" />
<rect x="5" y="54" width="1" height="1" fill="#000000" />
<rect x="6" y="54" width="1" height="1" fill="#000000" />
<rect x="7" y="54" width="1" height="1" fill="#000000" />
<rect x="8" y="54" width="1" height="1" fill="#000000" />
<rect x="9" y="54" width="1" height="1" fill="#000000" />
<rect x="10" y="54" width="1" height="1" fill="#000000" />
<rect x="11" y="54" width="1" height="1" fill="#000000" />
<rect x="4" y="55" width="1" height="1" fill="#000000" />
<rect x="5" y="55" width="1" height="1" fill="#000000" />
<rect x="6" y="55" width="1" height="1" fill="#000000" />
<rect x="7" y="55" width="1" height="1" fill="#000000" />
<rect x="8" y="55" width="1" height="1" fill="#000000" />
<rect x="9" y="55" width="1" height="1" fill="#000000" />
<rect x="10" y="55" width="1" height="1" fill="#000000" />
<rect x="11" y="55" width="1" height="1" fill="#000000" />
<rect x="4" y="56" width="1" height="1" fill="#000000" />
<rect x="5" y="56" width="1" height="1" fill="#000000" />
<rect x="6" y="56" width="1" height="1" fill="#000000" />
<rect x="7" y="56" width="1" height="1" fill="#000000" />
<rect x="8" y="56" width="1" height="1" fill="#000000" />
<rect x="9" y="56" width="1" height="1" fill="#000000" />
<rect x="10" y="56" width="1" height="1" fill="#000000" />
<rect x="11" y="56" width="1" height="1" fill="#000000" />
<rect x="4" y="57" width="1" height="1" fill="#000000" />
<rect x="5" y="57" width="1" height="1" fill="#000000" />
<rect x="6" y="57" width="1" height="1" fill="#000000" />
<rect x="7" y="57" width="1" height="1" fill="#000000" />
<rect x="8" y="57" width="1" height="1" fill="#000000" />
<rect x="9" y="57" width="1" height="1" fill="#000000" />
<rect x="10" y="57" width="1" height="1" fill="#000000" />
<rect x="11" y="57" width="1" height="1" fill="#000000" />
<rect x="4" y="58" width="1" height="1" fill="#000000" />
<rect x="5" y="58" width="1" height="1" fill="#000000" />
<rect x="6" y="58" width="1" height="1" fill="#000000" />
<rect x="7" y="58" width="1" height="1" fill="#000000" />
<rect x="8" y="58" width="1" height="1" fill="#000000" />
<rect x="9" y="58" width="1" height="1" fill="#000000" />
<rect x="10" y="58" width="1" height="1" fill="#000000" />
<rect x="11" y="58" width="1" height="1" fill="#000000" />
<rect x="4" y="59" width="1" height="1" fill="#000000" />
<rect x="5" y="59" width="1" height="1" fill="#000000" />
<rect x="6" y="59" width="1" height="1" fill="#000000" />
<rect x="7" y="59" width="1" height="1" fill="#000000" />
<rect x="8" y="59" width="1" height="1" fill="#000000" />
<rect x="9" y="59" width="1" height="1" fill="#000000" />
<rect x="10" y="59" width="1" height="1" fill="#000000" />
<rect x="11" y="59" width="1" height="1" fill="#000000" />
<rect x="4" y="60" width="1" height="1" fill="#000000" />
<rect x="5" y="60" width="1" height="1" fill="#000000" />
<rect x="6" y="60" width="1" height="1" fill="#000000" />
<rect x="7" y="60" width="1" height="1" fill="#000000" />
<rect x="8" y="60" width="1" height="1" fill="#000000" />
<rect x="9" y="60" width="1" height="1" fill="#000000" />
<rect x="10" y="60" width="1" height="1" fill="#000000" />
<rect x="11" y="60" width="1" height="1" fill="#000000" />
<rect x="4" y="61" width="1" height="1" fill="#000000" />
<rect x="5" y="61" width="1" height="1" fill="#000000" />
<rect x="6" y="61" width="1" height="1" fill="#000000" />
<rect x="7" y="61" width="1" height="1" fill="#000000" />
<rect x="8" y="61" width="1" height="1" fill="#000000" />
<rect x="9" y="61" width="1" height="1" fill="#000000" />
<rect x="10" y="61" width="1" height="1" fill="#000000" />
<rect x="11" y="61" width="1" height="1" fill="#000000" />
<rect x="4" y="62" width="1" height="1" fill="#000000" />
<rect x="5" y="62" width="1" height="1" fill="#000000" />
<rect x="6" y="62" width="1" height="1" fill="#000000" />
<rect x="7" y="62" width="1" height="1" fill="#000000" />
<rect x="8" y="62" width="1" height="1" fill="#000000" />
<rect x="9" y="62" width="1" height="1" fill="#000000" />
<rect x="10" y="62" width="1" height="1" fill="#000000" />
<rect x="11" y="62" width="1" height="1" fill="#000000" />
<rect x="4" y="63" width="1" height="1" fill="#000000" />
<rect x="5" y="63" width="1" height="1" fill="#000000" />
<rect x="6" y="63" width="1" height="1" fill="#000000" />
<rect x="7" y="63" width="1" height="1" fill="#000000" />
<rect x="8" y="63" width="1" height="1" fill="#000000" />
<rect x="9" y="63" width="1" height="1" fill="#000000" />
<rect x="10" y="63" width="1" height="1" fill="#000000" />
<rect x="11" y="63" width="1" height="1" fill="#000000" />
<rect x="4" y="64" width="1" height="1" fill="#000000" />
<rect x="5" y="64" width="1" height="1" fill="#000000" />
<rect x="6" y="64" width="1" height="1" fill="#000000" />
<rect x="7" y="64" width="1" height="1" fill="#000000" />
<rect x="8" y="64" width="1" height="1" fill="#000000" />
<rect x="9" y="64" width="1" height="1" fill="#000000" />
<rect x="10" y="64" width="1" height="1" fill="#000000" />
<rect x="11" y="64" width="1" height="1" fill="#000000" />
<rect x="4" y="65" width="1" height="1" fill="#000000" />
<rect x="5" y="65" width="1" height="1" fill="#000000" />
<rect x="6" y="65" width="1" height="1" fill="#000000" />
<rect x="7" y="65" width="1" height="1" fill="#000000" />
<rect x="8" y="65" width="1" height="1" fill="#000000" />
<rect x="9" y="65" width="1" height="1" fill="#000000" />
<rect x="10" y="65" width="1" height="1" fill="#000000" />
<rect x="11" y="65" width="1" height="1" fill="#000000" />
<rect x="4" y="66" width="1" height="1" fill="#000000" />
<rect x="5" y="66" width="1" height="1" fill="#000000" />
<rect x="6" y="66" width="1" height="1" fill="#000000" />
<rect x="7" y="66" width="1" height="1" fill="#000000" />
<rect x="8" y="66" width="1" height="1" fill="#000000" />
<rect x="9" y="66" width="1" height="1" fill="#000000" />
<rect x="10" y="66" width="1" height="1" fill="#000000" />
<rect x="11" y="66" width="1" height="1" fill="#000000" />
<rect x="4" y="67" width="1" height="1" fill="#000000" />
<rect x="5" y="67" width="1" height="1" fill="#000000" />
<rect x="6" y="67" width="1" height="1" fill="#000000" />
<rect x="7" y="67" width="1" height="1" fill="#000000" />
<rect x="8" y="67" width="1" height="1" fill="#000000" />
<rect x="9" y="67" width="1" height="1" fill="#000000" />
<rect x="10" y="67" width="1" height="1" fill="#000000" />
<rect x="11" y="67" width="1" height="1" fill="#000000" />
<rect x="4" y="68" width="1" height="1" fill="#000000" />
<rect x="5" y="68" width="1" height="1" fill="#000000" />
<rect x="6" y="68" width="1" height="1" fill="#000000" />
<rect x="7" y="68" width="1" height="1" fill="#000000" />
<rect x="8" y="68" width="1" height="1" fill="#000000" />
<rect x="9" y="68" width="1" height="1" fill="#000000" />
<rect x="10" y="68" width="1" height="1" fill="#000000" />
<rect x="11" y="68" width="1" height="1" fill="#000000" />
<rect x="4" y="69" width="1" height="1" fill="#000000" />
<rect x="5" y="69" width="1" height="1" fill="#000000" />
<rect x="6" y="69" width="1" height="1" fill="#000000" />
<rect x="7" y="69" width="1" height="1" fill="#000000" />
<rect x="8" y="69" width="1" height="1" fill="#000000" />
<rect x="9" y="69" width="1" height="1" fill="#000000" />
<rect x="10" y="69" width="1" height="1" fill="#000000" />
<rect x="11" y="69" width="1" height="1" fill="#000000" />
<rect x="4" y="70" width="1" height="1" fill="#000000" />
<rect x="5" y="70" width="1" height="1" fill="#000000" />
<rect x="6" y="70" width="1" height="1" fill="#000000" />
<rect x="7" y="70" width="1" height="1" fill="#000000" />
<rect x="8" y="70" width="1" height="1" fill="#000000" />
<rect x="9" y="70" width="1" height="1" fill="#000000" />
<rect x="10" y="70" width="1" height="1" fill="#000000" />
<rect x="11" y="70" width="1" height="1" fill="#000000" />
<rect x="4" y="71" width="1" height="1" fill="#000000" />
<rect x="5" y="71" width="1" height="1" fill="#000000" />
<rect x="6" y="71" width="1" height="1" fill="#000000" />
<rect x="7" y="71" width="1" height="1" fill="#000000" />
<rect x="8" y="71" width="1" height="1" fill="#000000" />
<rect x="9" y="71" width="1" height="1" fill="#000000" />
<rect x="10" y="71" width="1" height="1" fill="#000000" />
<rect x="11" y="71" width="1" height="1" fill="#000000" />
<rect x="4" y="72" width="1" height="1" fill="#000000" />
<rect x="5" y="72" width="1" height="1" fill="#000000" />
<rect x="6" y="72" width="1" height="1" fill="#000000" />
<rect x="7" y="72" width="1" height="1" fill="#000000" />
<rect x="8" y="72" width="1" height="1" fill="#000000" />
<rect x="9" y="72" width="1" height="1" fill="#000000" />
<rect x="10" y="72" width="1" height="1" fill="#000000" />
<rect x="11" y="72" width="1" height="1" fill="#000000" />
<rect x="4" y="73" width="1" height="1" fill="#000000" />
<rect x="5" y="73" width="1" height="1" fill="#000000" />
<rect x="6" y="73" width="1" height="1" fill="#000000" />
<rect x="7" y="73" width="1" height="1" fill="#000000" />
<rect x="8" y="73" width="1" height="1" fill="#000000" />
<rect x="9" y="73" width="1" height="1" fill="#000000" />
<rect x="10" y="73" width="1" height="1" fill="#000000" />
<rect x="11" y="73" width="1" height="1" fill="#000000" />
<rect x="4" y="74" width="1" height="1" fill="#000000" />
<rect x="5" y="74" width="1" height="1" fill="#000000" />
<rect x="6" y="74" width="1" height="1" fill="#000000" />
<rect x="7" y="74" width="1" height="1" fill="#000000" />
<rect x="8" y="74" width="1" height="1" fill="#000000" />
<rect x="9" y="74" width="1" height="1" fill="#000000" />
<rect x="10" y="74" width="1" height="1" fill="#000000" />
<rect x="11" y="74" width="1" height="1" fill="#000000" />
<rect x="4" y="75" width="1" height="1" fill="#000000" />
<rect x="5" y="75" width="1" height="1" fill="#000000" />
<rect x="6" y="75" width="1" height="1" fill="#000000" />
<rect x="7" y="75" width="1" height="1" fill="#000000" />
<rect x="8" y="75" width="1" height="1" fill="#000000" />
<rect x="9" y="75" width="1" height="1" fill="#000000" />
<rect x="10" y="75" width="1" height="1" fill="#000000" />
<rect x="11" y="75" width="1" height="1" fill="#000000" />
<rect x="4" y="76" width="1" height="1" fill="#000000" />
<rect x="5" y="76" width="1" height="1" fill="#000000" />
<rect x="6" y="76" width="1" height="1" fill="#000000" />
<rect x="7" y="76" width="1" height="1" fill="#000000" />
<rect x="8" y="76" width="1" height="1" fill="#000000" />
<rect x="9" y="76" width="1" height="1" fill="#000000" />
<rect x="10" y="76" width="1" height="1" fill="#000000" />
<rect x="11" y="76" width="1" height="1" fill="#000000" />
<rect x="4" y="77" width="1" height="1" fill="#000000" />
<rect x="5" y="77" width="1" height="1" fill="#000000" />
<rect x="6" y="77" width="1" height="1" fill="#000000" />
<rect x="7" y="77" width="1" height="1" fill="#000000" />
<rect x="8" y="77" width="1" height="1" fill="#000000" />
<rect x="9" y="77" width="1" height="1" fill="#000000" />
<rect x="10" y="77" width="1" height="1" fill="#000000" />
<rect x="11" y="77" width="1" height="1" fill="#000000" />
<rect x="0" y="78" width="1" height="1" fill="#000000" />
<rect x="1" y="78" width="1" height="1" fill="#000000" />
<rect x="2" y="78" width="1" height="1" fill="#000000" />
<rect x="3" y="78" width="1" height="1" fill="#000000" />
<rect x="4" y="78" width="1" height="1" fill="#000000" />
<rect x="5" y="78" width="1" height="1" fill="#000000" />
<rect x="6" y="78" width="1" height="1" fill="#000000" />
<rect x="7" y="78" width="1" height="1" fill="#000000" />
<rect x="8" y="78" width="1" height="1" fill="#000000" />
<rect x="9" y="78" width="1" height="1" fill="#000000" />
<rect x="10" y="78" width="1" height="1" fill="#000000" />
<rect x="11" y="78" width="1" height="1" fill="#000000" />
<rect x="12" y="78" width="1" height="1" fill="#000000" />
<rect x="13" y="78" width="1" height="1" fill="#000000" />
<rect x="14" y="78" width="1" height="1" fill="#000000" />
<rect x="15" y="78" width="1" height="1" fill="#000000" />
<rect x="0" y="79" width="1" height="1" fill="#000000" />
<rect x="1" y="79" width="1" height="1" fill="#000000" />
<rect x="2" y="79" width="1" height="1" fill="#000000" />
<rect x="3" y="79" width="1" height="1" fill="#000000" />
<rect x="4" y="79" width="1" height="1" fill="#000000" />
<rect x="5" y="79" width="1" height="1" fill="#000000" />
<rect x="6" y="79" width="1" height="1" fill="#000000" />
<rect x="7" y="79" width="1" height="1" fill="#000000" />
<rect x="8" y="79" width="1" height="1" fill="#000000" />
<rect x="9" y="79" width="1" height="1" fill="#000000" />
<rect x="10" y="79" width="1" height="1" fill="#000000" />
<rect x="11" y="79" width="1" height="1" fill="#000000" />
<rect x="12" y="79" width="1" height="1" fill="#000000" />
<rect x="13" y="79" width="1" height="1" fill="#000000" />
<rect x="14" y="79" width="1" height="1" fill="#000000" />
<rect x="15" y="79" width="1" height="1" fill="#000000" />
</svg>