<?xml version="1.0" encoding="UTF-8" ?>
<svg version="1.1" width="24" height="12" xmlns="http://www.w3.org/2000/svg" shape-rendering="crispEdges">
<rect x="2" y="3" width="1" height="1" fill="#AB2A2A" />
<rect x="3" y="3" width="1" height="1" fill="#AB2A2A" />
<rect x="4" y="3" width="1" height="1" fill="#AB2A2A" />
<rect x="5" y="3" width="1" height="1" fill="#AB2A2A" />
<rect x="6" y="3" width="1" height="1" fill="#AB2A2A" />
<rect x="7" y="3" width="1" height="1" fill="#AB2A2A" />
<rect x="8" y="3" width="1" height="1" fill="#AB2A2A" />
<rect x="9" y="3" width="1" height="1" fill="#AB2A2A" />
<rect x="10" y="3" width="1" height="1" fill="#AB2A2A" />
<rect x="11" y="3" width="1" height="1" fill="#AB2A2A" />
<rect x="12" y="3" width="1" height="1" fill="#AB2A2A" />
<rect x="13" y="3" width="1" height="1" fill="#AB2A2A" />
<rect x="14" y="3" width="1" height="1" fill="#AB2A2A" />
<rect x="15" y="3" width="1" height="1" fill="#AB2A2A" />
<rect x="16" y="3" width="1" height="1" fill="#AB2A2A" />
<rect x="17" y="3" width="1" height="1" fill="#AB2A2A" />
<rect x="18" y="3" width="1" height="1" fill="#AB2A2A" />
<rect x="1" y="4" width="1" height="1" fill="#AB2A2A" />
<rect x="2" y="4" width="1" height="1" fill="#AB2A2A" />
<rect x="3" y="4" width="1" height="1" fill="#AB2A2A" />
<rect x="4" y="4" width="1" height="1" fill="#AB2A2A" />
<rect x="5" y="4" width="1" height="1" fill="#AB2A2A" />
<rect x="6" y="4" width="1" height="1" fill="#AB2A2A" />
<rect x="7" y="4" width="1" height="1" fill="#AB2A2A" />
<rect x="8" y="4" width="1" height="1" fill="#AB2A2A" />
<rect x="9" y="4" width="1" height="1" fill="#AB2A2A" />
<rect x="10" y="4" width="1" height="1" fill="#AB2A2A" />
<rect x="11" y="4" width="1" height="1" fill="#AB2A2A" />
<rect x="12" y="4" width="1" height="1" fill="#AB2A2A" />
<rect x="13" y="4" width="1" height="1" fill="#AB2A2A" />
<rect x="14" y="4" width="1" height="1" fill="#AB2A2A" />
<rect x="15" y="4" width="1" height="1" fill="#AB2A2A" />
<rect x="16" y="4" width="1" height="1" fill="#AB2A2A" />
<rect x="17" y="4" width="1" height="1" fill="#AB2A2A" />
<rect x="18" y="4" width="1" height="1" fill="#AB2A2A" />
<rect x="19" y="4" width="1" height="1" fill="#AB2A2A" />
<rect x="0" y="5" width="1" height="1" fill="#AB2A2A" />
<rect x="1" y="5" width="1" height="1" fill="#AB2A2A" />
<rect x="19" y="5" width="1" height="1" fill="#AB2A2A" />
<rect x="20" y="5" width="1" height="1" fill="#AB2A2A" />
<rect x="21" y="5" width="1" height="1" fill="#AB2A2A" />
<rect x="22" y="5" width="1" height="1" fill="#AB2A2A" />
<rect x="23" y="5" width="1" height="1" fill="#AB2A2A" />
<rect x="0" y="6" width="1" height="1" fill="#AB2A2A" />
<rect x="1" y="6" width="1" height="1" fill="#AB2A2A" />
<rect x="19" y="6" width="1" height="1" fill="#AB2A2A" />
<rect x="20" y="6" width="1" height="1" fill="#AB2A2A" />
<rect x="21" y="6" width="1" height="1" fill="#AB2A2A" />
<rect x="22" y="6" width="1" height="1" fill="#AB2A2A" />
<rect x="23" y="6" width="1" height="1" fill="#AB2A2A" />
<rect x="1" y="7" width="1" height="1" fill="#AB2A2A" />
<rect x="2" y="7" width="1" height="1" fill="#AB2A2A" />
<rect x="3" y="7" width="1" height="1" fill="#AB2A2A" />
<rect x="4" y="7" width="1" height="1" fill="#AB2A2A" />
<rect x="5" y="7" width="1" height="1" fill="#AB2A2A" />
<rect x="6" y="7" width="1" height="1" fill="#AB2A2A" />
<rect x="7" y="7" width="1" height="1" fill="#AB2A2A" />
<rect x="8" y="7" width="1" height="1" fill="#AB2A2A" />
<rect x="9" y="7" width="1" height="1" fill="#AB2A2A" />
<rect x="10" y="7" width="1" height="1" fill="#AB2A2A" />
<rect x="11" y="7" width="1" height="1" fill="#AB2A2A" />
<rect x="12" y="7" width="1" height="1" fill="#AB2A2A" />
<rect x="13" y="7" width="1" height="1" fill="#AB2A2A" />
<rect x="14" y="7" width="1" height="1" fill="#AB2A2A" />
<rect x="15" y="7" width="1" height="1" fill="#AB2A2A" />
<rect x="16" y="7" width="1" height="1" fill="#AB2A2A" />
<rect x="17" y="7" width="1" height="1" fill="#AB2A2A" />
<rect x="18" y="7" width="1" height="1" fill="#AB2A2A" />
<rect x="19" y="7" width="1" height="1" fill="#AB2A2A" />
<rect x="2" y="8" width="1" height="1" fill="#AB2A2A" />
<rect x="3" y="8" width="1" height="1" fill="#AB2A2A" />
<rect x="4" y="8" width="1" height="1" fill="#AB2A2A" />
<rect x="5" y="8" width="1" height="1" fill="#AB2A2A" />
<rect x="6" y="8" width="1" height="1" fill="#AB2A2A" />
<rect x="7" y="8" width="1" height="1" fill="#AB2A2A" />
<rect x="8" y="8" width="1" height="1" fill="#AB2A2A" />
<rect x="9" y="8" width="1" height="1" fill="#AB2A2A" />
<rect x="10" y="8" width="1" height="1" fill="#AB2A2A" />
<rect x="11" y="8" width="1" height="1" fill="#AB2A2A" />
<rect x="12" y="8" width="1" height="1" fill="#AB2A2A" />
<rect x="13" y="8" width="1" height="1" fill="#AB2A2A" />
<rect x="14" y="8" width="1" height="1" fill="#AB2A2A" />
<rect x="15" y="8" width="1" height="1" fill="#AB2A2A" />
<rect x="16" y="8" width="1" height="1" fill="#AB2A2A" />
<rect x="17" y="8" width="1" height="1" fill="#AB2A2A" />
<rect x="18" y="8" width="1" height="1" fill="#AB2A2A" />
</svg>